<svg id="SvgjsSvg1045" width="288" height="288" xmlns="http://www.w3.org/2000/svg" version="1.1" xmlns:xlink="http://www.w3.org/1999/xlink" xmlns:svgjs="http://svgjs.com/svgjs"><defs id="SvgjsDefs1046"></defs><g id="SvgjsG1047"><svg xmlns="http://www.w3.org/2000/svg" enable-background="new 0 0 1000 1000" viewBox="0 0 1000 1000" width="288" height="288"><path d="M926.5,302.9c-9.9-19.3-14.9-40.2-27-58.3c-23.1-44-55-84.7-92.4-119.4c-19.8-12.7-36.3-28.6-56.1-41.3c-17.6-11.6-36.9-20.9-55-30.8c-28.1-11-55-22.6-84.2-29.7c-11.6-1.1-21.5-6.6-33-6.6l-47.9-5.5c-24.8-2.8-50.6-0.6-75.9,1.1c-56.7,4.4-106.7,23.1-156.8,45.1c-86.4,42.9-163.9,117.2-206.3,205.2C60,329.3,42.4,405.2,44.6,477.8c0,9.4,2.8,23.1,1.7,31.9c4.4,17.1,3.8,33,8.3,49c26.4,122.7,105.1,237.1,220.6,301.5c20.9,15.4,45.1,22,68.2,31.4c81.4,30.8,184.3,36.3,270.1,13.2c122.7-28.1,236-116.6,292.7-232.7c1.1-1.1,2.8-1.1,1.7-3.3C962.8,557.6,972.1,422.3,926.5,302.9z M401.6,214.3c14.3-12.1,31.9-22,53.4-17.1c15.4,3.9,28.6,14.9,36.9,29.2c7.7,14.3,10.4,38,0,52.3c-9.4,16-27.5,29.2-46.2,29.7c-21.5-1.1-44.6-10.5-52.8-32.5C381.3,255.6,387.9,231.9,401.6,214.3z M896.2,644.5c-36.3,84.2-111.7,165-194.8,204.7c-25.9,13.8-52.3,26.4-80.9,30.8c-12.7,0-23.7,3.3-36.3,3.3l-33-3.3c-7.1-1.7-13.8-6.6-21.5-5c-37.4-6-72.1-26.4-100.7-53.4C376.9,767.7,356,688,376.9,618.1c10.5-34.7,31.4-67.7,58.9-92.4c33.6-23.7,67.7-45.7,100.1-72.6c39.1-28.1,82.5-58.3,101.2-103.4c15.4-22.6,18.2-50.1,23.1-77c8.3-80.3-31.4-163.4-104-205.2c-14.3-9.9-31.4-14.3-46.2-22.6C493,42.1,478.1,35,461.6,35c-1.7-1.1,0.5-1.1-0.6-1.6c39.6-6.6,90.8-2.2,132.6,6.6C705.9,63.6,812.6,138.4,872,238.5l17.1,30.3C947.9,379.9,950.7,532.8,896.2,644.5z" fill="#ffffff" class="color000 svgShape"></path><path d="M622.2 662.7c7.2 21.5 2.2 46.8-14.9 62.7-16 11.6-36.3 21.5-56.7 14.3-15.4-5.5-31.4-17.1-39.1-31.4-7.2-15.4-5-35.2 2.2-50.1 10.5-20.4 33-28.1 52.3-35.2C590.9 622.5 612.9 640.7 622.2 662.7zM678.8 977.9l-.5.5-1.6-2.2C677.1 976.8 677.7 977.3 678.8 977.9zM612.8 988.9h.6l0 0H612.8zM606.7 989.5c0 .5-.5.5-1.6.5C605.6 988.9 606.2 989.5 606.7 989.5z" fill="#ffffff" class="color000 svgShape"></path></svg></g></svg>